<svg width="0" height="0"><symbol xmlns="http://www.w3.org/2000/svg" id="logout-icon" fill="none" viewBox="0 0 24 24"><path stroke="currentColor" stroke-linecap="round" stroke-linejoin="round" stroke-width="2" d="m17 16 4-4m0 0-4-4m4 4H7m6 4v1a3 3 0 0 1-3 3H6a3 3 0 0 1-3-3V7a3 3 0 0 1 3-3h4a3 3 0 0 1 3 3v1"/></symbol><symbol xmlns="http://www.w3.org/2000/svg" id="new-chat-icon" viewBox="0 0 24 24"><path fill="currentColor" d="M0 0h24v24H0V0z"/><path fill="currentColor" d="M18 13h-5v5c0 .55-.45 1-1 1s-1-.45-1-1v-5H6c-.55 0-1-.45-1-1s.45-1 1-1h5V6c0-.55.45-1 1-1s1 .45 1 1v5h5c.55 0 1 .45 1 1s-.45 1-1 1z"/></symbol><symbol xmlns="http://www.w3.org/2000/svg" id="sent-request-icon" fill="none" viewBox="0 0 32 32"><path fill="currentColor" fill-rule="evenodd" d="M15.192 8.906a1.143 1.143 0 0 1 1.616 0l5.143 5.143a1.143 1.143 0 0 1-1.616 1.616l-3.192-3.192v9.813a1.143 1.143 0 0 1-2.286 0v-9.813l-3.192 3.192a1.143 1.143 0 1 1-1.616-1.616l5.143-5.143Z" clip-rule="evenodd"/></symbol></svg>